<svg xmlns="http://www.w3.org/2000/svg" xmlns:xlink="http://www.w3.org/1999/xlink" width="70" zoomAndPan="magnify" viewBox="0 0 52.5 37.5" height="50" preserveAspectRatio="xMidYMid meet" version="1.0"><defs><g/><clipPath id="ef3dba5431"><path d="M 3.835938 14.480469 L 12.054688 14.480469 L 12.054688 22.699219 L 3.835938 22.699219 Z M 3.835938 14.480469 " clip-rule="nonzero"/></clipPath><clipPath id="032b9ab8c1"><path d="M 13.105469 14.480469 L 21.324219 14.480469 L 21.324219 22.699219 L 13.105469 22.699219 Z M 13.105469 14.480469 " clip-rule="nonzero"/></clipPath><clipPath id="3a132cdb7c"><path d="M 22.375 14.480469 L 30.59375 14.480469 L 30.59375 22.699219 L 22.375 22.699219 Z M 22.375 14.480469 " clip-rule="nonzero"/></clipPath><clipPath id="94a4d6c538"><path d="M 31.644531 14.480469 L 39.863281 14.480469 L 39.863281 22.699219 L 31.644531 22.699219 Z M 31.644531 14.480469 " clip-rule="nonzero"/></clipPath><clipPath id="aac4ef7104"><path d="M 40.914062 14.480469 L 49.132812 14.480469 L 49.132812 22.699219 L 40.914062 22.699219 Z M 40.914062 14.480469 " clip-rule="nonzero"/></clipPath><clipPath id="880a87fd69"><path d="M 5 18.433594 L 48 18.433594 L 48 19.179688 L 5 19.179688 Z M 5 18.433594 " clip-rule="nonzero"/></clipPath></defs><g clip-path="url(#ef3dba5431)"><path fill="#c0c1c1" d="M 3.835938 14.480469 L 12.054688 14.480469 L 12.054688 22.699219 L 3.835938 22.699219 L 3.835938 14.480469 " fill-opacity="1" fill-rule="nonzero"/></g><g clip-path="url(#032b9ab8c1)"><path fill="#c0c1c1" d="M 13.105469 14.480469 L 21.324219 14.480469 L 21.324219 22.699219 L 13.105469 22.699219 L 13.105469 14.480469 " fill-opacity="1" fill-rule="nonzero"/></g><g clip-path="url(#3a132cdb7c)"><path fill="#c0c1c1" d="M 22.375 14.480469 L 30.59375 14.480469 L 30.59375 22.699219 L 22.375 22.699219 L 22.375 14.480469 " fill-opacity="1" fill-rule="nonzero"/></g><g clip-path="url(#94a4d6c538)"><path fill="#c0c1c1" d="M 31.644531 14.480469 L 39.863281 14.480469 L 39.863281 22.699219 L 31.644531 22.699219 L 31.644531 14.480469 " fill-opacity="1" fill-rule="nonzero"/></g><g clip-path="url(#aac4ef7104)"><path fill="#c0c1c1" d="M 40.914062 14.480469 L 49.132812 14.480469 L 49.132812 22.699219 L 40.914062 22.699219 L 40.914062 14.480469 " fill-opacity="1" fill-rule="nonzero"/></g><g clip-path="url(#880a87fd69)"><path fill="#dbdbda" d="M 47.71875 19.175781 L 5.527344 19.175781 L 5.527344 18.429688 L 47.71875 18.429688 L 47.71875 19.175781 " fill-opacity="1" fill-rule="nonzero"/></g><g fill="#ffffff" fill-opacity="1"><g transform="translate(5.730288, 21.568607)"><g><path d="M 1.625 0 L 0.640625 0 L 0.640625 -4.96875 L 1.625 -4.96875 L 1.625 -2.9375 L 1.734375 -2.9375 L 3.40625 -4.96875 L 4.40625 -4.96875 L 4.40625 -4.890625 L 2.578125 -2.625 L 4.59375 -0.078125 L 4.59375 0 L 3.484375 0 L 1.734375 -2.140625 L 1.625 -2.140625 Z M 1.625 0 "/></g></g></g><g fill="#ffffff" fill-opacity="1"><g transform="translate(42.808746, 21.369358)"><g><path d="M 1.625 0 L 0.640625 0 L 0.640625 -4.96875 L 1.625 -4.96875 L 1.625 -2.9375 L 1.734375 -2.9375 L 3.40625 -4.96875 L 4.40625 -4.96875 L 4.40625 -4.890625 L 2.578125 -2.625 L 4.59375 -0.078125 L 4.59375 0 L 3.484375 0 L 1.734375 -2.140625 L 1.625 -2.140625 Z M 1.625 0 "/></g></g></g><g fill="#ffffff" fill-opacity="1"><g transform="translate(14.872778, 21.369358)"><g><path d="M 4.78125 0 L 3.734375 0 L 3.359375 -1.140625 L 1.453125 -1.140625 L 1.078125 0 L 0.078125 0 L 1.796875 -4.96875 L 3.0625 -4.96875 Z M 2.359375 -3.9375 L 1.71875 -1.96875 L 3.09375 -1.96875 L 2.453125 -3.9375 Z M 2.359375 -3.9375 "/></g></g></g><g fill="#ffffff" fill-opacity="1"><g transform="translate(33.412009, 21.568607)"><g><path d="M 4.78125 0 L 3.734375 0 L 3.359375 -1.140625 L 1.453125 -1.140625 L 1.078125 0 L 0.078125 0 L 1.796875 -4.96875 L 3.0625 -4.96875 Z M 2.359375 -3.9375 L 1.71875 -1.96875 L 3.09375 -1.96875 L 2.453125 -3.9375 Z M 2.359375 -3.9375 "/></g></g></g><g fill="#f3f3f2" fill-opacity="1"><g transform="translate(24.333079, 21.369358)"><g><path d="M 2.71875 0 L 1.75 0 L 1.75 -1.953125 L 0.03125 -4.96875 L 1.078125 -4.96875 L 2.21875 -3.015625 L 2.296875 -3.015625 L 3.40625 -4.96875 L 4.4375 -4.96875 L 2.71875 -1.953125 Z M 2.71875 0 "/></g></g></g></svg>