<svg xmlns="http://www.w3.org/2000/svg" xmlns:xlink="http://www.w3.org/1999/xlink" width="70" zoomAndPan="magnify" viewBox="0 0 52.5 37.5" height="50" preserveAspectRatio="xMidYMid meet" version="1.0"><defs><g/><clipPath id="e10c3d493d"><path d="M 10.261719 11.804688 L 23.710938 11.804688 L 23.710938 25.253906 L 10.261719 25.253906 Z M 10.261719 11.804688 " clip-rule="nonzero"/></clipPath><clipPath id="6aa28ea035"><path d="M 14.96875 18.679688 L 29.910156 18.679688 L 29.910156 23.910156 L 14.96875 23.910156 Z M 14.96875 18.679688 " clip-rule="nonzero"/></clipPath></defs><g clip-path="url(#e10c3d493d)"><path fill="#c0c1c1" d="M 10.261719 11.804688 L 10.261719 25.253906 L 23.710938 25.253906 L 23.710938 11.804688 Z M 23.367188 24.910156 L 10.605469 24.910156 L 10.605469 12.148438 L 23.367188 12.148438 Z M 23.367188 24.910156 " fill-opacity="1" fill-rule="nonzero"/></g><g clip-path="url(#6aa28ea035)"><path fill="#ffffff" d="M 14.96875 18.679688 L 29.910156 18.679688 L 29.910156 23.910156 L 14.96875 23.910156 L 14.96875 18.679688 " fill-opacity="1" fill-rule="nonzero"/></g><g fill="#c0c1c1" fill-opacity="1"><g transform="translate(12.682227, 23.162588)"><g><path d="M 1.171875 0 L 0.46875 0 L 0.46875 -3.5625 L 1.171875 -3.5625 Z M 1.171875 0 "/></g></g></g><g fill="#c0c1c1" fill-opacity="1"><g transform="translate(13.868491, 23.162588)"><g><path d="M 1.140625 0 L 0.46875 0 L 0.46875 -3.5625 L 1.265625 -3.5625 L 2.703125 -1.265625 L 2.765625 -1.28125 L 2.765625 -3.5625 L 3.4375 -3.5625 L 3.4375 0 L 2.71875 0 L 1.203125 -2.453125 L 1.140625 -2.4375 Z M 1.140625 0 "/></g></g></g><g fill="#c0c1c1" fill-opacity="1"><g transform="translate(17.326454, 23.162588)"><g><path d="M 1.75 -3.5625 C 2.320312 -3.5625 2.757812 -3.410156 3.0625 -3.109375 C 3.363281 -2.804688 3.515625 -2.363281 3.515625 -1.78125 C 3.515625 -1.1875 3.363281 -0.738281 3.0625 -0.4375 C 2.757812 -0.144531 2.320312 0 1.75 0 L 0.46875 0 L 0.46875 -3.5625 Z M 1.703125 -0.59375 C 2.066406 -0.59375 2.335938 -0.6875 2.515625 -0.875 C 2.703125 -1.0625 2.796875 -1.363281 2.796875 -1.78125 C 2.796875 -2.195312 2.703125 -2.5 2.515625 -2.6875 C 2.335938 -2.875 2.066406 -2.96875 1.703125 -2.96875 L 1.171875 -2.96875 L 1.171875 -0.59375 Z M 1.703125 -0.59375 "/></g></g></g><g fill="#c0c1c1" fill-opacity="1"><g transform="translate(20.682264, 23.162588)"><g><path d="M 1.171875 0 L 0.46875 0 L 0.46875 -3.5625 L 1.171875 -3.5625 Z M 1.171875 0 "/></g></g></g><g fill="#c0c1c1" fill-opacity="1"><g transform="translate(21.868528, 23.162588)"><g><path d="M 1.171875 -1.5625 L 1.171875 -0.59375 L 2.859375 -0.59375 L 2.859375 0 L 0.46875 0 L 0.46875 -3.5625 L 2.828125 -3.5625 L 2.828125 -2.96875 L 1.171875 -2.96875 L 1.171875 -2.140625 L 2.609375 -2.140625 L 2.609375 -1.5625 Z M 1.171875 -1.5625 "/></g></g></g><g fill="#c0c1c1" fill-opacity="1"><g transform="translate(24.482508, 23.162588)"><g><path d="M 1.734375 0.046875 C 1.429688 0.046875 1.171875 -0.0195312 0.953125 -0.15625 C 0.734375 -0.289062 0.566406 -0.492188 0.453125 -0.765625 C 0.335938 -1.035156 0.28125 -1.375 0.28125 -1.78125 C 0.28125 -2.1875 0.347656 -2.523438 0.484375 -2.796875 C 0.628906 -3.066406 0.828125 -3.269531 1.078125 -3.40625 C 1.328125 -3.539062 1.617188 -3.609375 1.953125 -3.609375 C 2.296875 -3.609375 2.585938 -3.546875 2.828125 -3.421875 C 3.066406 -3.296875 3.234375 -3.109375 3.328125 -2.859375 L 2.8125 -2.546875 L 2.75 -2.546875 C 2.675781 -2.703125 2.570312 -2.816406 2.4375 -2.890625 C 2.3125 -2.960938 2.148438 -3 1.953125 -3 C 1.640625 -3 1.398438 -2.898438 1.234375 -2.703125 C 1.078125 -2.515625 1 -2.207031 1 -1.78125 C 1 -1.351562 1.070312 -1.039062 1.21875 -0.84375 C 1.375 -0.644531 1.601562 -0.546875 1.90625 -0.546875 C 2.164062 -0.546875 2.351562 -0.601562 2.46875 -0.71875 C 2.59375 -0.832031 2.65625 -1.003906 2.65625 -1.234375 L 2.65625 -1.390625 L 1.8125 -1.390625 L 1.8125 -1.96875 L 3.359375 -1.96875 L 3.359375 0 L 2.6875 0 L 2.6875 -0.484375 L 2.625 -0.484375 C 2.550781 -0.316406 2.441406 -0.1875 2.296875 -0.09375 C 2.148438 0 1.960938 0.046875 1.734375 0.046875 Z M 1.734375 0.046875 "/></g></g></g><g fill="#c0c1c1" fill-opacity="1"><g transform="translate(27.748325, 23.162588)"><g><path d="M 1.9375 0.046875 C 1.613281 0.046875 1.328125 -0.015625 1.078125 -0.140625 C 0.828125 -0.273438 0.628906 -0.476562 0.484375 -0.75 C 0.347656 -1.03125 0.28125 -1.375 0.28125 -1.78125 C 0.28125 -2.1875 0.347656 -2.523438 0.484375 -2.796875 C 0.628906 -3.066406 0.828125 -3.269531 1.078125 -3.40625 C 1.328125 -3.539062 1.613281 -3.609375 1.9375 -3.609375 C 2.257812 -3.609375 2.546875 -3.539062 2.796875 -3.40625 C 3.046875 -3.28125 3.238281 -3.078125 3.375 -2.796875 C 3.519531 -2.523438 3.59375 -2.1875 3.59375 -1.78125 C 3.59375 -1.375 3.519531 -1.03125 3.375 -0.75 C 3.238281 -0.476562 3.046875 -0.273438 2.796875 -0.140625 C 2.546875 -0.015625 2.257812 0.046875 1.9375 0.046875 Z M 1.9375 -0.5625 C 2.238281 -0.5625 2.46875 -0.65625 2.625 -0.84375 C 2.789062 -1.039062 2.875 -1.351562 2.875 -1.78125 C 2.875 -2.207031 2.789062 -2.515625 2.625 -2.703125 C 2.46875 -2.898438 2.238281 -3 1.9375 -3 C 1.632812 -3 1.398438 -2.898438 1.234375 -2.703125 C 1.078125 -2.515625 1 -2.207031 1 -1.78125 C 1 -1.351562 1.078125 -1.039062 1.234375 -0.84375 C 1.398438 -0.65625 1.632812 -0.5625 1.9375 -0.5625 Z M 1.9375 -0.5625 "/></g></g></g><g fill="#c0c1c1" fill-opacity="1"><g transform="translate(31.179533, 23.162588)"><g><path d="M 1.734375 0.046875 C 1.429688 0.046875 1.171875 -0.0195312 0.953125 -0.15625 C 0.734375 -0.289062 0.566406 -0.492188 0.453125 -0.765625 C 0.335938 -1.035156 0.28125 -1.375 0.28125 -1.78125 C 0.28125 -2.1875 0.347656 -2.523438 0.484375 -2.796875 C 0.628906 -3.066406 0.828125 -3.269531 1.078125 -3.40625 C 1.328125 -3.539062 1.617188 -3.609375 1.953125 -3.609375 C 2.296875 -3.609375 2.585938 -3.546875 2.828125 -3.421875 C 3.066406 -3.296875 3.234375 -3.109375 3.328125 -2.859375 L 2.8125 -2.546875 L 2.75 -2.546875 C 2.675781 -2.703125 2.570312 -2.816406 2.4375 -2.890625 C 2.3125 -2.960938 2.148438 -3 1.953125 -3 C 1.640625 -3 1.398438 -2.898438 1.234375 -2.703125 C 1.078125 -2.515625 1 -2.207031 1 -1.78125 C 1 -1.351562 1.070312 -1.039062 1.21875 -0.84375 C 1.375 -0.644531 1.601562 -0.546875 1.90625 -0.546875 C 2.164062 -0.546875 2.351562 -0.601562 2.46875 -0.71875 C 2.59375 -0.832031 2.65625 -1.003906 2.65625 -1.234375 L 2.65625 -1.390625 L 1.8125 -1.390625 L 1.8125 -1.96875 L 3.359375 -1.96875 L 3.359375 0 L 2.6875 0 L 2.6875 -0.484375 L 2.625 -0.484375 C 2.550781 -0.316406 2.441406 -0.1875 2.296875 -0.09375 C 2.148438 0 1.960938 0.046875 1.734375 0.046875 Z M 1.734375 0.046875 "/></g></g></g><g fill="#c0c1c1" fill-opacity="1"><g transform="translate(34.44535, 23.162588)"><g><path d="M 1.9375 0.046875 C 1.613281 0.046875 1.328125 -0.015625 1.078125 -0.140625 C 0.828125 -0.273438 0.628906 -0.476562 0.484375 -0.75 C 0.347656 -1.03125 0.28125 -1.375 0.28125 -1.78125 C 0.28125 -2.1875 0.347656 -2.523438 0.484375 -2.796875 C 0.628906 -3.066406 0.828125 -3.269531 1.078125 -3.40625 C 1.328125 -3.539062 1.613281 -3.609375 1.9375 -3.609375 C 2.257812 -3.609375 2.546875 -3.539062 2.796875 -3.40625 C 3.046875 -3.28125 3.238281 -3.078125 3.375 -2.796875 C 3.519531 -2.523438 3.59375 -2.1875 3.59375 -1.78125 C 3.59375 -1.375 3.519531 -1.03125 3.375 -0.75 C 3.238281 -0.476562 3.046875 -0.273438 2.796875 -0.140625 C 2.546875 -0.015625 2.257812 0.046875 1.9375 0.046875 Z M 1.9375 -0.5625 C 2.238281 -0.5625 2.46875 -0.65625 2.625 -0.84375 C 2.789062 -1.039062 2.875 -1.351562 2.875 -1.78125 C 2.875 -2.207031 2.789062 -2.515625 2.625 -2.703125 C 2.46875 -2.898438 2.238281 -3 1.9375 -3 C 1.632812 -3 1.398438 -2.898438 1.234375 -2.703125 C 1.078125 -2.515625 1 -2.207031 1 -1.78125 C 1 -1.351562 1.078125 -1.039062 1.234375 -0.84375 C 1.398438 -0.65625 1.632812 -0.5625 1.9375 -0.5625 Z M 1.9375 -0.5625 "/></g></g></g></svg>