<svg xmlns="http://www.w3.org/2000/svg" xmlns:xlink="http://www.w3.org/1999/xlink" width="70" zoomAndPan="magnify" viewBox="0 0 52.5 37.5" height="50" preserveAspectRatio="xMidYMid meet" version="1.0"><defs><g/><clipPath id="ccdbf31c8a"><path d="M 7.945312 14.519531 L 23.636719 14.519531 L 23.636719 26.472656 L 7.945312 26.472656 Z M 7.945312 14.519531 " clip-rule="nonzero"/></clipPath><clipPath id="7f77d5cd21"><path d="M 8.984375 15.988281 L 22.433594 15.988281 L 22.433594 25.703125 L 8.984375 25.703125 Z M 8.984375 15.988281 " clip-rule="nonzero"/></clipPath></defs><g clip-path="url(#ccdbf31c8a)"><path fill="#898b8b" d="M 15.789062 14.519531 L 23.632812 26.472656 L 7.945312 26.472656 L 15.789062 14.519531 " fill-opacity="1" fill-rule="nonzero"/></g><path stroke-linecap="butt" transform="matrix(0.000000000000000046, -0.74718, 0.74718, 0.000000000000000046, 15.228512, 22.655594)" fill="none" stroke-linejoin="miter" d="M -0.000878051 0.499278 L 13.001128 0.499278 " stroke="#898b8b" stroke-width="1" stroke-opacity="1" stroke-miterlimit="4"/><g clip-path="url(#7f77d5cd21)"><path fill="#dbdbda" d="M 15.707031 15.992188 L 22.433594 25.703125 L 8.984375 25.703125 L 15.707031 15.992188 " fill-opacity="1" fill-rule="nonzero"/></g><g fill="#898b8b" fill-opacity="1"><g transform="translate(19.944457, 20.210799)"><g><path d="M 0.285156 -0.0898438 C 0.285156 -0.0351562 0.320312 0 0.375 0 L 0.96875 0 C 1.03125 0 1.058594 -0.0351562 1.058594 -0.0898438 L 1.058594 -1.527344 L 1.742188 -1.527344 C 2.277344 -1.527344 2.5625 -1.816406 2.5625 -2.34375 L 2.5625 -3.734375 C 2.5625 -4.269531 2.277344 -4.554688 1.742188 -4.554688 L 0.375 -4.554688 C 0.320312 -4.554688 0.285156 -4.519531 0.285156 -4.460938 Z M 1.058594 -2.277344 L 1.058594 -3.800781 L 1.558594 -3.800781 C 1.714844 -3.800781 1.789062 -3.722656 1.789062 -3.574219 L 1.789062 -2.503906 C 1.789062 -2.363281 1.714844 -2.277344 1.558594 -2.277344 Z M 1.058594 -2.277344 "/></g></g></g><g fill="#898b8b" fill-opacity="1"><g transform="translate(23.012613, 20.210799)"><g><path d="M 1.925781 -4.554688 C 1.863281 -4.554688 1.808594 -4.503906 1.808594 -4.441406 L 1.808594 -0.980469 C 1.808594 -0.824219 1.730469 -0.75 1.582031 -0.75 L 1.285156 -0.75 C 1.136719 -0.75 1.058594 -0.824219 1.058594 -0.980469 L 1.058594 -4.441406 C 1.058594 -4.503906 1.007812 -4.554688 0.945312 -4.554688 L 0.398438 -4.554688 C 0.335938 -4.554688 0.285156 -4.503906 0.285156 -4.441406 L 0.285156 -0.820312 C 0.285156 -0.285156 0.570312 0 1.105469 0 L 1.742188 0 C 2.277344 0 2.5625 -0.285156 2.5625 -0.820312 L 2.5625 -4.441406 C 2.5625 -4.503906 2.511719 -4.554688 2.449219 -4.554688 Z M 1.925781 -4.554688 "/></g></g></g><g fill="#898b8b" fill-opacity="1"><g transform="translate(26.080768, 20.210799)"><g><path d="M 0.285156 -0.0898438 C 0.285156 -0.0351562 0.320312 0 0.375 0 L 0.96875 0 C 1.03125 0 1.058594 -0.0351562 1.058594 -0.0898438 L 1.058594 -1.527344 L 1.742188 -1.527344 C 2.277344 -1.527344 2.5625 -1.816406 2.5625 -2.34375 L 2.5625 -3.734375 C 2.5625 -4.269531 2.277344 -4.554688 1.742188 -4.554688 L 0.375 -4.554688 C 0.320312 -4.554688 0.285156 -4.519531 0.285156 -4.460938 Z M 1.058594 -2.277344 L 1.058594 -3.800781 L 1.558594 -3.800781 C 1.714844 -3.800781 1.789062 -3.722656 1.789062 -3.574219 L 1.789062 -2.503906 C 1.789062 -2.363281 1.714844 -2.277344 1.558594 -2.277344 Z M 1.058594 -2.277344 "/></g></g></g><g fill="#898b8b" fill-opacity="1"><g transform="translate(29.148924, 20.210799)"><g><path d="M 0.285156 -0.0898438 C 0.285156 -0.0351562 0.320312 0 0.375 0 L 0.96875 0 C 1.03125 0 1.058594 -0.0351562 1.058594 -0.0898438 L 1.058594 -1.527344 L 1.742188 -1.527344 C 2.277344 -1.527344 2.5625 -1.816406 2.5625 -2.34375 L 2.5625 -3.734375 C 2.5625 -4.269531 2.277344 -4.554688 1.742188 -4.554688 L 0.375 -4.554688 C 0.320312 -4.554688 0.285156 -4.519531 0.285156 -4.460938 Z M 1.058594 -2.277344 L 1.058594 -3.800781 L 1.558594 -3.800781 C 1.714844 -3.800781 1.789062 -3.722656 1.789062 -3.574219 L 1.789062 -2.503906 C 1.789062 -2.363281 1.714844 -2.277344 1.558594 -2.277344 Z M 1.058594 -2.277344 "/></g></g></g><g fill="#898b8b" fill-opacity="1"><g transform="translate(32.21708, 20.210799)"><g><path d="M 2.554688 -4.460938 C 2.554688 -4.519531 2.53125 -4.554688 2.464844 -4.554688 L 0.371094 -4.554688 C 0.320312 -4.554688 0.285156 -4.519531 0.285156 -4.460938 L 0.285156 -0.0898438 C 0.285156 -0.0351562 0.320312 0 0.371094 0 L 2.464844 0 C 2.53125 0 2.554688 -0.0351562 2.554688 -0.0898438 L 2.554688 -0.660156 C 2.554688 -0.722656 2.53125 -0.75 2.464844 -0.75 L 1.042969 -0.75 L 1.042969 -1.902344 L 2.128906 -1.902344 C 2.1875 -1.902344 2.21875 -1.933594 2.21875 -1.996094 L 2.21875 -2.5625 C 2.21875 -2.625 2.1875 -2.660156 2.128906 -2.660156 L 1.042969 -2.660156 L 1.042969 -3.796875 L 2.464844 -3.796875 C 2.53125 -3.796875 2.554688 -3.835938 2.554688 -3.894531 Z M 2.554688 -4.460938 "/></g></g></g><g fill="#898b8b" fill-opacity="1"><g transform="translate(35.27954, 20.210799)"><g><path d="M 0.261719 -4.554688 C 0.203125 -4.554688 0.171875 -4.519531 0.171875 -4.460938 L 0.171875 -3.894531 C 0.171875 -3.835938 0.203125 -3.800781 0.261719 -3.800781 L 0.921875 -3.800781 L 0.921875 -0.0898438 C 0.921875 -0.0273438 0.957031 0 1.011719 0 L 1.605469 0 C 1.667969 0 1.695312 -0.0273438 1.695312 -0.0898438 L 1.695312 -3.800781 L 2.355469 -3.800781 C 2.417969 -3.800781 2.449219 -3.835938 2.449219 -3.894531 L 2.449219 -4.460938 C 2.449219 -4.519531 2.417969 -4.554688 2.355469 -4.554688 Z M 0.261719 -4.554688 "/></g></g></g><g fill="#898b8b" fill-opacity="1"><g transform="translate(30.227447, 23.984486)"><g><path d="M 0.890625 0.046875 C 0.691406 0.046875 0.539062 -0.00390625 0.4375 -0.109375 C 0.34375 -0.210938 0.296875 -0.375 0.296875 -0.59375 L 0.296875 -3 L 0.828125 -3 L 0.828125 -0.609375 C 0.828125 -0.484375 0.882812 -0.421875 1 -0.421875 C 1.03125 -0.421875 1.0625 -0.425781 1.09375 -0.4375 L 1.125 -0.421875 L 1.171875 -0.015625 C 1.140625 0.00390625 1.097656 0.0195312 1.046875 0.03125 C 1.003906 0.0390625 0.953125 0.046875 0.890625 0.046875 Z M 0.890625 0.046875 "/></g></g></g><g fill="#898b8b" fill-opacity="1"><g transform="translate(31.174155, 23.984486)"><g><path d="M 0.84375 0.046875 C 0.695312 0.046875 0.570312 0.0195312 0.46875 -0.03125 C 0.375 -0.0820312 0.296875 -0.15625 0.234375 -0.25 C 0.179688 -0.351562 0.15625 -0.472656 0.15625 -0.609375 C 0.15625 -0.734375 0.179688 -0.835938 0.234375 -0.921875 C 0.296875 -1.015625 0.382812 -1.085938 0.5 -1.140625 C 0.613281 -1.191406 0.765625 -1.234375 0.953125 -1.265625 C 1.078125 -1.285156 1.171875 -1.304688 1.234375 -1.328125 C 1.304688 -1.359375 1.351562 -1.390625 1.375 -1.421875 C 1.394531 -1.453125 1.40625 -1.492188 1.40625 -1.546875 C 1.40625 -1.609375 1.378906 -1.65625 1.328125 -1.6875 C 1.285156 -1.726562 1.207031 -1.75 1.09375 -1.75 C 0.976562 -1.75 0.863281 -1.722656 0.75 -1.671875 C 0.644531 -1.617188 0.554688 -1.550781 0.484375 -1.46875 L 0.4375 -1.46875 L 0.21875 -1.796875 C 0.320312 -1.921875 0.453125 -2.015625 0.609375 -2.078125 C 0.765625 -2.148438 0.9375 -2.1875 1.125 -2.1875 C 1.40625 -2.1875 1.609375 -2.125 1.734375 -2 C 1.867188 -1.882812 1.9375 -1.71875 1.9375 -1.5 L 1.9375 -0.5625 C 1.9375 -0.46875 1.976562 -0.421875 2.0625 -0.421875 C 2.09375 -0.421875 2.125 -0.425781 2.15625 -0.4375 L 2.1875 -0.421875 L 2.21875 -0.046875 C 2.1875 -0.0234375 2.144531 -0.0078125 2.09375 0 C 2.039062 0.0078125 1.984375 0.015625 1.921875 0.015625 C 1.796875 0.015625 1.695312 -0.00390625 1.625 -0.046875 C 1.550781 -0.0976562 1.5 -0.179688 1.46875 -0.296875 L 1.421875 -0.296875 C 1.316406 -0.0664062 1.125 0.046875 0.84375 0.046875 Z M 1 -0.359375 C 1.125 -0.359375 1.222656 -0.398438 1.296875 -0.484375 C 1.378906 -0.566406 1.421875 -0.6875 1.421875 -0.84375 L 1.421875 -1.046875 L 1.375 -1.0625 C 1.34375 -1.03125 1.300781 -1.003906 1.25 -0.984375 C 1.195312 -0.972656 1.125 -0.960938 1.03125 -0.953125 C 0.914062 -0.929688 0.832031 -0.894531 0.78125 -0.84375 C 0.726562 -0.800781 0.703125 -0.734375 0.703125 -0.640625 C 0.703125 -0.546875 0.726562 -0.472656 0.78125 -0.421875 C 0.832031 -0.378906 0.90625 -0.359375 1 -0.359375 Z M 1 -0.359375 "/></g></g></g><g fill="#898b8b" fill-opacity="1"><g transform="translate(33.150181, 23.984486)"><g><path d="M 1.5 0.046875 C 1.226562 0.046875 1.023438 -0.0546875 0.890625 -0.265625 L 0.84375 -0.265625 L 0.84375 0 L 0.3125 0 L 0.3125 -3 L 0.84375 -3 L 0.84375 -1.890625 L 0.890625 -1.890625 C 0.960938 -1.984375 1.046875 -2.054688 1.140625 -2.109375 C 1.242188 -2.160156 1.367188 -2.1875 1.515625 -2.1875 C 1.679688 -2.1875 1.828125 -2.144531 1.953125 -2.0625 C 2.085938 -1.976562 2.191406 -1.851562 2.265625 -1.6875 C 2.335938 -1.519531 2.375 -1.316406 2.375 -1.078125 C 2.375 -0.828125 2.335938 -0.617188 2.265625 -0.453125 C 2.191406 -0.285156 2.085938 -0.160156 1.953125 -0.078125 C 1.816406 0.00390625 1.664062 0.046875 1.5 0.046875 Z M 1.34375 -0.421875 C 1.5 -0.421875 1.617188 -0.472656 1.703125 -0.578125 C 1.785156 -0.679688 1.828125 -0.847656 1.828125 -1.078125 C 1.828125 -1.296875 1.785156 -1.457031 1.703125 -1.5625 C 1.617188 -1.675781 1.5 -1.734375 1.34375 -1.734375 C 1.1875 -1.734375 1.0625 -1.675781 0.96875 -1.5625 C 0.882812 -1.457031 0.84375 -1.296875 0.84375 -1.078125 C 0.84375 -0.847656 0.882812 -0.679688 0.96875 -0.578125 C 1.0625 -0.472656 1.1875 -0.421875 1.34375 -0.421875 Z M 1.34375 -0.421875 "/></g></g></g><g fill="#898b8b" fill-opacity="1"><g transform="translate(35.433641, 23.984486)"><g><path d="M 1 0.046875 C 0.851562 0.046875 0.71875 0.03125 0.59375 0 C 0.476562 -0.0390625 0.375 -0.09375 0.28125 -0.15625 C 0.195312 -0.21875 0.132812 -0.285156 0.09375 -0.359375 L 0.390625 -0.6875 L 0.4375 -0.6875 C 0.507812 -0.582031 0.59375 -0.503906 0.6875 -0.453125 C 0.789062 -0.410156 0.894531 -0.390625 1 -0.390625 C 1.113281 -0.390625 1.195312 -0.40625 1.25 -0.4375 C 1.300781 -0.476562 1.328125 -0.535156 1.328125 -0.609375 C 1.328125 -0.660156 1.304688 -0.707031 1.265625 -0.75 C 1.222656 -0.789062 1.160156 -0.820312 1.078125 -0.84375 L 0.796875 -0.90625 C 0.585938 -0.957031 0.429688 -1.035156 0.328125 -1.140625 C 0.234375 -1.242188 0.1875 -1.375 0.1875 -1.53125 C 0.1875 -1.664062 0.21875 -1.78125 0.28125 -1.875 C 0.351562 -1.976562 0.453125 -2.054688 0.578125 -2.109375 C 0.703125 -2.160156 0.84375 -2.1875 1 -2.1875 C 1.195312 -2.1875 1.359375 -2.15625 1.484375 -2.09375 C 1.609375 -2.039062 1.707031 -1.96875 1.78125 -1.875 L 1.5 -1.5625 L 1.453125 -1.5625 C 1.398438 -1.632812 1.332031 -1.6875 1.25 -1.71875 C 1.175781 -1.75 1.09375 -1.765625 1 -1.765625 C 0.789062 -1.765625 0.6875 -1.695312 0.6875 -1.5625 C 0.6875 -1.507812 0.707031 -1.460938 0.75 -1.421875 C 0.789062 -1.390625 0.859375 -1.363281 0.953125 -1.34375 L 1.21875 -1.28125 C 1.4375 -1.238281 1.59375 -1.164062 1.6875 -1.0625 C 1.789062 -0.957031 1.84375 -0.816406 1.84375 -0.640625 C 1.84375 -0.503906 1.804688 -0.382812 1.734375 -0.28125 C 1.671875 -0.175781 1.578125 -0.09375 1.453125 -0.03125 C 1.328125 0.0195312 1.175781 0.046875 1 0.046875 Z M 1 0.046875 "/></g></g></g></svg>