<svg xmlns="http://www.w3.org/2000/svg" xmlns:xlink="http://www.w3.org/1999/xlink" width="70" zoomAndPan="magnify" viewBox="0 0 52.5 37.5" height="50" preserveAspectRatio="xMidYMid meet" version="1.0"><defs><g/><clipPath id="be510a44dc"><path d="M 26.25 16 L 28 16 L 28 18.621094 L 26.25 18.621094 Z M 26.25 16 " clip-rule="nonzero"/></clipPath><clipPath id="9bd68cc4c1"><path d="M 27 15 L 29 15 L 29 18.621094 L 27 18.621094 Z M 27 15 " clip-rule="nonzero"/></clipPath><clipPath id="3a6cf4b9f8"><path d="M 29 14 L 31 14 L 31 18.621094 L 29 18.621094 Z M 29 14 " clip-rule="nonzero"/></clipPath><clipPath id="f508ae9d80"><path d="M 31 13 L 33 13 L 33 18.621094 L 31 18.621094 Z M 31 13 " clip-rule="nonzero"/></clipPath><clipPath id="a2d50e3a85"><path d="M 32 11.894531 L 33.722656 11.894531 L 33.722656 18.621094 L 32 18.621094 Z M 32 11.894531 " clip-rule="nonzero"/></clipPath></defs><g clip-path="url(#be510a44dc)"><path fill="#898b8b" d="M 26.402344 16.394531 L 27.128906 16.394531 C 27.214844 16.394531 27.28125 16.457031 27.28125 16.535156 L 27.28125 18.476562 C 27.28125 18.554688 27.214844 18.617188 27.128906 18.617188 L 26.402344 18.617188 C 26.320312 18.617188 26.25 18.554688 26.25 18.476562 L 26.25 16.535156 C 26.25 16.457031 26.320312 16.394531 26.402344 16.394531 Z M 26.402344 16.394531 " fill-opacity="1" fill-rule="evenodd"/></g><g clip-path="url(#9bd68cc4c1)"><path fill="#898b8b" d="M 28.011719 15.230469 L 28.742188 15.230469 C 28.824219 15.230469 28.890625 15.292969 28.890625 15.371094 L 28.890625 18.476562 C 28.890625 18.554688 28.824219 18.617188 28.742188 18.617188 L 28.011719 18.617188 C 27.929688 18.617188 27.859375 18.554688 27.859375 18.476562 L 27.859375 15.371094 C 27.859375 15.292969 27.929688 15.230469 28.011719 15.230469 Z M 28.011719 15.230469 " fill-opacity="1" fill-rule="evenodd"/></g><g clip-path="url(#3a6cf4b9f8)"><path fill="#898b8b" d="M 29.621094 14.167969 L 30.351562 14.167969 C 30.433594 14.167969 30.503906 14.230469 30.503906 14.308594 L 30.503906 18.476562 C 30.503906 18.554688 30.433594 18.617188 30.351562 18.617188 L 29.621094 18.617188 C 29.539062 18.617188 29.46875 18.554688 29.46875 18.476562 L 29.46875 14.308594 C 29.46875 14.230469 29.539062 14.167969 29.621094 14.167969 Z M 29.621094 14.167969 " fill-opacity="1" fill-rule="evenodd"/></g><g clip-path="url(#f508ae9d80)"><path fill="#898b8b" d="M 31.230469 13.226562 L 31.960938 13.226562 C 32.042969 13.226562 32.113281 13.292969 32.113281 13.367188 L 32.113281 18.476562 C 32.113281 18.554688 32.042969 18.617188 31.960938 18.617188 L 31.230469 18.617188 C 31.148438 18.617188 31.078125 18.554688 31.078125 18.476562 L 31.078125 13.367188 C 31.078125 13.289062 31.148438 13.226562 31.230469 13.226562 Z M 31.230469 13.226562 " fill-opacity="1" fill-rule="evenodd"/></g><g clip-path="url(#a2d50e3a85)"><path fill="#898b8b" d="M 32.839844 11.898438 L 33.570312 11.898438 C 33.652344 11.898438 33.722656 11.960938 33.722656 12.039062 L 33.722656 18.476562 C 33.722656 18.554688 33.652344 18.617188 33.570312 18.617188 L 32.839844 18.617188 C 32.757812 18.617188 32.691406 18.554688 32.691406 18.476562 L 32.691406 12.039062 C 32.691406 11.960938 32.757812 11.898438 32.839844 11.898438 Z M 32.839844 11.898438 " fill-opacity="1" fill-rule="evenodd"/></g><g fill="#898b8b" fill-opacity="1"><g transform="translate(12.114628, 22.91353)"><g><path d="M 0.921875 0 L 0.15625 0 L 1.21875 -4.265625 L 2.328125 -4.265625 L 2.625 -1.125 L 2.6875 -1.125 L 4.546875 -4.265625 L 5.625 -4.265625 L 4.546875 0 L 3.75 0 L 4.453125 -2.828125 L 4.390625 -2.828125 L 2.6875 0 L 1.984375 0 L 1.703125 -2.828125 L 1.625 -2.828125 Z M 0.921875 0 "/></g></g></g><g fill="#898b8b" fill-opacity="1"><g transform="translate(17.272411, 22.91353)"><g><path d="M 0.84375 0.0625 C 0.632812 0.0625 0.460938 0.0234375 0.328125 -0.046875 C 0.191406 -0.128906 0.101562 -0.242188 0.0625 -0.390625 C 0.0195312 -0.535156 0.0234375 -0.710938 0.078125 -0.921875 C 0.117188 -1.109375 0.195312 -1.265625 0.3125 -1.390625 C 0.425781 -1.523438 0.578125 -1.632812 0.765625 -1.71875 C 0.960938 -1.800781 1.207031 -1.863281 1.5 -1.90625 C 1.695312 -1.9375 1.847656 -1.96875 1.953125 -2 C 2.066406 -2.039062 2.144531 -2.082031 2.1875 -2.125 C 2.238281 -2.175781 2.273438 -2.238281 2.296875 -2.3125 C 2.316406 -2.414062 2.296875 -2.492188 2.234375 -2.546875 C 2.179688 -2.597656 2.070312 -2.625 1.90625 -2.625 C 1.726562 -2.625 1.546875 -2.582031 1.359375 -2.5 C 1.179688 -2.425781 1.015625 -2.328125 0.859375 -2.203125 L 0.796875 -2.203125 L 0.59375 -2.703125 C 0.800781 -2.890625 1.035156 -3.03125 1.296875 -3.125 C 1.554688 -3.226562 1.828125 -3.28125 2.109375 -3.28125 C 2.535156 -3.28125 2.820312 -3.1875 2.96875 -3 C 3.113281 -2.820312 3.144531 -2.566406 3.0625 -2.234375 L 2.703125 -0.84375 C 2.671875 -0.695312 2.71875 -0.625 2.84375 -0.625 C 2.894531 -0.625 2.945312 -0.632812 3 -0.65625 L 3.03125 -0.640625 L 2.953125 -0.078125 C 2.898438 -0.046875 2.832031 -0.0195312 2.75 0 C 2.664062 0.0078125 2.570312 0.015625 2.46875 0.015625 C 2.28125 0.015625 2.140625 -0.0195312 2.046875 -0.09375 C 1.960938 -0.164062 1.914062 -0.28125 1.90625 -0.4375 L 1.84375 -0.4375 C 1.601562 -0.101562 1.269531 0.0625 0.84375 0.0625 Z M 1.25 -0.546875 C 1.4375 -0.546875 1.597656 -0.609375 1.734375 -0.734375 C 1.878906 -0.859375 1.984375 -1.03125 2.046875 -1.25 L 2.125 -1.578125 L 2.078125 -1.59375 C 2.015625 -1.550781 1.941406 -1.515625 1.859375 -1.484375 C 1.773438 -1.460938 1.65625 -1.441406 1.5 -1.421875 C 1.3125 -1.390625 1.171875 -1.335938 1.078125 -1.265625 C 0.984375 -1.191406 0.921875 -1.09375 0.890625 -0.96875 C 0.847656 -0.832031 0.859375 -0.726562 0.921875 -0.65625 C 0.992188 -0.582031 1.101562 -0.546875 1.25 -0.546875 Z M 1.25 -0.546875 "/></g></g></g><g fill="#898b8b" fill-opacity="1"><g transform="translate(20.314157, 22.91353)"><g><path d="M 0.0625 0 L 0.859375 -3.21875 L 1.65625 -3.21875 L 1.53125 -2.75 L 1.59375 -2.734375 C 1.71875 -2.910156 1.851562 -3.039062 2 -3.125 C 2.144531 -3.207031 2.304688 -3.25 2.484375 -3.25 C 2.671875 -3.25 2.804688 -3.21875 2.890625 -3.15625 L 2.578125 -2.453125 L 2.5 -2.453125 C 2.457031 -2.472656 2.410156 -2.488281 2.359375 -2.5 C 2.316406 -2.507812 2.257812 -2.515625 2.1875 -2.515625 C 1.96875 -2.515625 1.773438 -2.429688 1.609375 -2.265625 C 1.453125 -2.109375 1.332031 -1.851562 1.25 -1.5 L 0.875 0 Z M 0.0625 0 "/></g></g></g><g fill="#898b8b" fill-opacity="1"><g transform="translate(22.486139, 22.91353)"><g><path d="M 0.875 0 L 0.0625 0 L 1.1875 -4.515625 L 2 -4.515625 L 1.375 -2.015625 L 1.453125 -2.015625 L 2.6875 -3.21875 L 3.5 -3.21875 L 3.484375 -3.15625 L 2.046875 -1.734375 L 2.84375 -0.078125 L 2.828125 0 L 1.96875 0 L 1.28125 -1.359375 L 1.203125 -1.359375 Z M 0.875 0 "/></g></g></g><g fill="#898b8b" fill-opacity="1"><g transform="translate(25.36444, 22.91353)"><g><path d="M 3.140625 -1.421875 L 1.0625 -1.421875 C 1.019531 -1.140625 1.050781 -0.9375 1.15625 -0.8125 C 1.257812 -0.6875 1.429688 -0.625 1.671875 -0.625 C 1.847656 -0.625 2.003906 -0.65625 2.140625 -0.71875 C 2.273438 -0.789062 2.394531 -0.898438 2.5 -1.046875 L 2.5625 -1.046875 L 3.015625 -0.703125 C 2.847656 -0.472656 2.640625 -0.285156 2.390625 -0.140625 C 2.148438 -0.00390625 1.851562 0.0625 1.5 0.0625 C 1.164062 0.0625 0.890625 0 0.671875 -0.125 C 0.460938 -0.25 0.320312 -0.4375 0.25 -0.6875 C 0.1875 -0.9375 0.203125 -1.242188 0.296875 -1.609375 C 0.378906 -1.972656 0.519531 -2.28125 0.71875 -2.53125 C 0.925781 -2.78125 1.160156 -2.96875 1.421875 -3.09375 C 1.691406 -3.21875 1.972656 -3.28125 2.265625 -3.28125 C 2.722656 -3.28125 3.039062 -3.160156 3.21875 -2.921875 C 3.40625 -2.679688 3.441406 -2.328125 3.328125 -1.859375 C 3.285156 -1.691406 3.242188 -1.5625 3.203125 -1.46875 Z M 2.578125 -1.953125 C 2.628906 -2.191406 2.613281 -2.367188 2.53125 -2.484375 C 2.457031 -2.597656 2.316406 -2.65625 2.109375 -2.65625 C 1.703125 -2.65625 1.40625 -2.421875 1.21875 -1.953125 Z M 2.578125 -1.953125 "/></g></g></g><g fill="#898b8b" fill-opacity="1"><g transform="translate(28.511258, 22.91353)"><g><path d="M 2.015625 -0.765625 L 2.078125 -0.171875 C 1.972656 -0.0976562 1.847656 -0.0390625 1.703125 0 C 1.554688 0.0390625 1.398438 0.0625 1.234375 0.0625 C 0.890625 0.0625 0.648438 -0.03125 0.515625 -0.21875 C 0.378906 -0.414062 0.359375 -0.691406 0.453125 -1.046875 L 0.828125 -2.578125 L 0.34375 -2.578125 L 0.5 -3.21875 L 0.984375 -3.21875 L 1.140625 -3.859375 L 1.984375 -3.984375 L 1.796875 -3.21875 L 2.71875 -3.21875 L 2.546875 -2.578125 L 1.640625 -2.578125 L 1.265625 -1.109375 C 1.234375 -0.953125 1.238281 -0.835938 1.28125 -0.765625 C 1.332031 -0.691406 1.421875 -0.65625 1.546875 -0.65625 C 1.691406 -0.65625 1.828125 -0.691406 1.953125 -0.765625 Z M 2.015625 -0.765625 "/></g></g></g><g fill="#898b8b" fill-opacity="1"><g transform="translate(30.659891, 22.91353)"><g><path d="M 1.453125 0.0625 C 1.140625 0.0625 0.878906 0 0.671875 -0.125 C 0.460938 -0.257812 0.320312 -0.453125 0.25 -0.703125 C 0.1875 -0.953125 0.203125 -1.253906 0.296875 -1.609375 C 0.378906 -1.960938 0.515625 -2.265625 0.703125 -2.515625 C 0.898438 -2.765625 1.132812 -2.953125 1.40625 -3.078125 C 1.675781 -3.210938 1.972656 -3.28125 2.296875 -3.28125 C 2.609375 -3.28125 2.863281 -3.210938 3.0625 -3.078125 C 3.269531 -2.953125 3.410156 -2.765625 3.484375 -2.515625 C 3.554688 -2.265625 3.546875 -1.960938 3.453125 -1.609375 C 3.367188 -1.253906 3.226562 -0.953125 3.03125 -0.703125 C 2.832031 -0.453125 2.597656 -0.257812 2.328125 -0.125 C 2.054688 0 1.765625 0.0625 1.453125 0.0625 Z M 1.625 -0.625 C 2.125 -0.625 2.457031 -0.953125 2.625 -1.609375 C 2.707031 -1.953125 2.703125 -2.203125 2.609375 -2.359375 C 2.523438 -2.515625 2.363281 -2.59375 2.125 -2.59375 C 1.625 -2.59375 1.289062 -2.265625 1.125 -1.609375 C 0.957031 -0.953125 1.125 -0.625 1.625 -0.625 Z M 1.625 -0.625 "/></g></g></g></svg>