<svg xmlns="http://www.w3.org/2000/svg" xmlns:xlink="http://www.w3.org/1999/xlink" width="70" zoomAndPan="magnify" viewBox="0 0 52.5 37.5" height="50" preserveAspectRatio="xMidYMid meet" version="1.0"><defs><g/><clipPath id="e5ef2d95be"><path d="M 10 15 L 16 15 L 16 21 L 10 21 Z M 10 15 " clip-rule="nonzero"/></clipPath><clipPath id="70db1a8689"><path d="M 11.496094 15.292969 L 15.734375 16.75 L 14.277344 20.988281 L 10.039062 19.53125 Z M 11.496094 15.292969 " clip-rule="nonzero"/></clipPath><clipPath id="63164c1ba9"><path d="M 10 17 L 18 17 L 18 24 L 10 24 Z M 10 17 " clip-rule="nonzero"/></clipPath><clipPath id="bb248188c7"><path d="M 12.402344 17.238281 L 17.351562 18.9375 L 15.652344 23.882812 L 10.703125 22.183594 Z M 12.402344 17.238281 " clip-rule="nonzero"/></clipPath></defs><g clip-path="url(#e5ef2d95be)"><g clip-path="url(#70db1a8689)"><path fill="#aaadad" d="M 11.496094 15.292969 L 15.730469 16.746094 L 14.277344 20.988281 L 10.039062 19.53125 L 11.496094 15.292969 " fill-opacity="1" fill-rule="nonzero"/></g></g><g clip-path="url(#63164c1ba9)"><g clip-path="url(#bb248188c7)"><path fill="#898b8b" d="M 12.402344 17.238281 L 17.351562 18.9375 L 15.652344 23.882812 L 10.703125 22.183594 L 12.402344 17.238281 " fill-opacity="1" fill-rule="nonzero"/></g></g><g fill="#898b8b" fill-opacity="1"><g transform="translate(16.745574, 20.671986)"><g><path d="M 3.421875 -4.265625 L 3.421875 -3.5625 L 2.1875 -3.5625 L 2.1875 0 L 1.34375 0 L 1.34375 -3.5625 L 0.109375 -3.5625 L 0.109375 -4.265625 Z M 3.421875 -4.265625 "/></g></g><g transform="translate(20.283005, 20.671986)"><g><path d="M 3.1875 -1.421875 L 1.109375 -1.421875 C 1.140625 -1.140625 1.222656 -0.9375 1.359375 -0.8125 C 1.492188 -0.6875 1.675781 -0.625 1.90625 -0.625 C 2.09375 -0.625 2.242188 -0.65625 2.359375 -0.71875 C 2.472656 -0.789062 2.566406 -0.898438 2.640625 -1.046875 L 2.703125 -1.046875 L 3.234375 -0.703125 C 3.128906 -0.472656 2.96875 -0.285156 2.75 -0.140625 C 2.539062 -0.00390625 2.257812 0.0625 1.90625 0.0625 C 1.570312 0.0625 1.285156 0 1.046875 -0.125 C 0.804688 -0.25 0.617188 -0.4375 0.484375 -0.6875 C 0.359375 -0.9375 0.296875 -1.242188 0.296875 -1.609375 C 0.296875 -1.972656 0.363281 -2.28125 0.5 -2.53125 C 0.632812 -2.78125 0.816406 -2.96875 1.046875 -3.09375 C 1.285156 -3.21875 1.554688 -3.28125 1.859375 -3.28125 C 2.304688 -3.28125 2.648438 -3.160156 2.890625 -2.921875 C 3.140625 -2.679688 3.265625 -2.328125 3.265625 -1.859375 C 3.265625 -1.691406 3.257812 -1.5625 3.25 -1.46875 Z M 2.484375 -1.953125 C 2.484375 -2.191406 2.425781 -2.367188 2.3125 -2.484375 C 2.207031 -2.597656 2.054688 -2.65625 1.859375 -2.65625 C 1.441406 -2.65625 1.195312 -2.421875 1.125 -1.953125 Z M 2.484375 -1.953125 "/></g></g><g transform="translate(23.782492, 20.671986)"><g><path d="M 0.90625 0 L 0.0625 0 L 0.96875 -1.671875 L 0.109375 -3.21875 L 0.96875 -3.21875 L 1.53125 -2.15625 L 1.59375 -2.15625 L 2.15625 -3.21875 L 3 -3.21875 L 2.15625 -1.671875 L 3.046875 0 L 2.1875 0 L 1.578125 -1.171875 L 1.5 -1.171875 Z M 0.90625 0 "/></g></g><g transform="translate(26.879203, 20.671986)"><g><path d="M 2.21875 -0.765625 L 2.4375 -0.171875 C 2.34375 -0.0976562 2.226562 -0.0390625 2.09375 0 C 1.96875 0.0390625 1.820312 0.0625 1.65625 0.0625 C 1.300781 0.0625 1.035156 -0.03125 0.859375 -0.21875 C 0.679688 -0.414062 0.59375 -0.691406 0.59375 -1.046875 L 0.59375 -2.578125 L 0.09375 -2.578125 L 0.09375 -3.21875 L 0.59375 -3.21875 L 0.59375 -3.859375 L 1.390625 -3.984375 L 1.390625 -3.21875 L 2.3125 -3.21875 L 2.3125 -2.578125 L 1.390625 -2.578125 L 1.390625 -1.109375 C 1.390625 -0.953125 1.421875 -0.835938 1.484375 -0.765625 C 1.554688 -0.691406 1.65625 -0.65625 1.78125 -0.65625 C 1.925781 -0.65625 2.050781 -0.691406 2.15625 -0.765625 Z M 2.21875 -0.765625 "/></g></g><g transform="translate(29.380504, 20.671986)"><g><path d="M 1.46875 0.0625 C 1.113281 0.0625 0.847656 -0.0351562 0.671875 -0.234375 C 0.503906 -0.429688 0.421875 -0.71875 0.421875 -1.09375 L 0.421875 -3.21875 L 1.21875 -3.21875 L 1.21875 -1.1875 C 1.21875 -0.988281 1.257812 -0.84375 1.34375 -0.75 C 1.4375 -0.664062 1.570312 -0.625 1.75 -0.625 C 1.96875 -0.625 2.140625 -0.695312 2.265625 -0.84375 C 2.390625 -0.988281 2.453125 -1.21875 2.453125 -1.53125 L 2.453125 -3.21875 L 3.265625 -3.21875 L 3.265625 0 L 2.484375 0 L 2.484375 -0.46875 L 2.421875 -0.484375 C 2.316406 -0.296875 2.191406 -0.15625 2.046875 -0.0625 C 1.898438 0.0195312 1.707031 0.0625 1.46875 0.0625 Z M 1.46875 0.0625 "/></g></g><g transform="translate(33.104729, 20.671986)"><g><path d="M 0.46875 0 L 0.46875 -3.21875 L 1.25 -3.21875 L 1.25 -2.75 L 1.3125 -2.734375 C 1.382812 -2.910156 1.484375 -3.039062 1.609375 -3.125 C 1.742188 -3.207031 1.898438 -3.25 2.078125 -3.25 C 2.265625 -3.25 2.40625 -3.21875 2.5 -3.15625 L 2.359375 -2.453125 L 2.296875 -2.453125 C 2.242188 -2.472656 2.191406 -2.488281 2.140625 -2.5 C 2.097656 -2.507812 2.039062 -2.515625 1.96875 -2.515625 C 1.738281 -2.515625 1.566406 -2.429688 1.453125 -2.265625 C 1.335938 -2.109375 1.28125 -1.851562 1.28125 -1.5 L 1.28125 0 Z M 0.46875 0 "/></g></g><g transform="translate(35.629381, 20.671986)"><g><path d="M 1.25 0.0625 C 1.050781 0.0625 0.875 0.0234375 0.71875 -0.046875 C 0.5625 -0.128906 0.441406 -0.242188 0.359375 -0.390625 C 0.285156 -0.535156 0.25 -0.710938 0.25 -0.921875 C 0.25 -1.109375 0.285156 -1.265625 0.359375 -1.390625 C 0.441406 -1.523438 0.566406 -1.632812 0.734375 -1.71875 C 0.910156 -1.800781 1.140625 -1.863281 1.421875 -1.90625 C 1.609375 -1.9375 1.753906 -1.96875 1.859375 -2 C 1.960938 -2.039062 2.03125 -2.082031 2.0625 -2.125 C 2.09375 -2.175781 2.109375 -2.238281 2.109375 -2.3125 C 2.109375 -2.414062 2.070312 -2.492188 2 -2.546875 C 1.9375 -2.597656 1.816406 -2.625 1.640625 -2.625 C 1.460938 -2.625 1.289062 -2.582031 1.125 -2.5 C 0.96875 -2.425781 0.832031 -2.328125 0.71875 -2.203125 L 0.65625 -2.203125 L 0.3125 -2.703125 C 0.476562 -2.890625 0.675781 -3.03125 0.90625 -3.125 C 1.144531 -3.226562 1.40625 -3.28125 1.6875 -3.28125 C 2.113281 -3.28125 2.421875 -3.1875 2.609375 -3 C 2.804688 -2.820312 2.90625 -2.566406 2.90625 -2.234375 L 2.90625 -0.84375 C 2.90625 -0.695312 2.96875 -0.625 3.09375 -0.625 C 3.144531 -0.625 3.191406 -0.632812 3.234375 -0.65625 L 3.28125 -0.640625 L 3.328125 -0.078125 C 3.285156 -0.046875 3.222656 -0.0195312 3.140625 0 C 3.066406 0.0078125 2.984375 0.015625 2.890625 0.015625 C 2.691406 0.015625 2.535156 -0.0195312 2.421875 -0.09375 C 2.316406 -0.164062 2.242188 -0.28125 2.203125 -0.4375 L 2.140625 -0.4375 C 1.984375 -0.101562 1.6875 0.0625 1.25 0.0625 Z M 1.515625 -0.546875 C 1.703125 -0.546875 1.847656 -0.609375 1.953125 -0.734375 C 2.066406 -0.859375 2.125 -1.03125 2.125 -1.25 L 2.125 -1.578125 L 2.078125 -1.59375 C 2.023438 -1.550781 1.957031 -1.515625 1.875 -1.484375 C 1.800781 -1.460938 1.691406 -1.441406 1.546875 -1.421875 C 1.367188 -1.390625 1.238281 -1.335938 1.15625 -1.265625 C 1.082031 -1.191406 1.046875 -1.09375 1.046875 -0.96875 C 1.046875 -0.832031 1.085938 -0.726562 1.171875 -0.65625 C 1.253906 -0.582031 1.367188 -0.546875 1.515625 -0.546875 Z M 1.515625 -0.546875 "/></g></g></g><g fill="#898b8b" fill-opacity="1"><g transform="translate(18.564213, 22.938424)"><g><path d="M 0.734375 -0.171875 L 0.78125 -0.0625 C 0.75 -0.03125 0.710938 -0.0078125 0.671875 0 C 0.640625 0.0078125 0.597656 0.015625 0.546875 0.015625 C 0.335938 0.015625 0.234375 -0.0859375 0.234375 -0.296875 L 0.234375 -0.953125 L 0.046875 -0.953125 L 0.046875 -1.078125 L 0.234375 -1.078125 L 0.234375 -1.3125 L 0.390625 -1.328125 L 0.390625 -1.078125 L 0.75 -1.078125 L 0.75 -0.953125 L 0.390625 -0.953125 L 0.390625 -0.3125 C 0.390625 -0.1875 0.445312 -0.125 0.5625 -0.125 C 0.613281 -0.125 0.660156 -0.140625 0.703125 -0.171875 Z M 0.734375 -0.171875 "/></g></g><g transform="translate(19.381443, 22.938424)"><g><path d="M 0.734375 -0.171875 L 0.78125 -0.0625 C 0.75 -0.03125 0.710938 -0.0078125 0.671875 0 C 0.640625 0.0078125 0.597656 0.015625 0.546875 0.015625 C 0.335938 0.015625 0.234375 -0.0859375 0.234375 -0.296875 L 0.234375 -0.953125 L 0.046875 -0.953125 L 0.046875 -1.078125 L 0.234375 -1.078125 L 0.234375 -1.3125 L 0.390625 -1.328125 L 0.390625 -1.078125 L 0.75 -1.078125 L 0.75 -0.953125 L 0.390625 -0.953125 L 0.390625 -0.3125 C 0.390625 -0.1875 0.445312 -0.125 0.5625 -0.125 C 0.613281 -0.125 0.660156 -0.140625 0.703125 -0.171875 Z M 0.734375 -0.171875 "/></g></g><g transform="translate(20.198672, 22.938424)"><g><path d="M 0.421875 0.015625 C 0.347656 0.015625 0.289062 -0.00390625 0.25 -0.046875 C 0.207031 -0.0859375 0.1875 -0.148438 0.1875 -0.234375 L 0.1875 -1.515625 L 0.34375 -1.515625 L 0.34375 -0.25 C 0.34375 -0.207031 0.347656 -0.175781 0.359375 -0.15625 C 0.378906 -0.132812 0.410156 -0.125 0.453125 -0.125 C 0.472656 -0.125 0.492188 -0.128906 0.515625 -0.140625 L 0.53125 -0.125 L 0.546875 0 C 0.535156 0.0078125 0.519531 0.015625 0.5 0.015625 C 0.476562 0.015625 0.453125 0.015625 0.421875 0.015625 Z M 0.421875 0.015625 "/></g></g><g transform="translate(20.782408, 22.938424)"><g><path d="M 1.03125 -0.5 L 0.28125 -0.5 C 0.289062 -0.375 0.320312 -0.28125 0.375 -0.21875 C 0.4375 -0.15625 0.519531 -0.125 0.625 -0.125 C 0.695312 -0.125 0.753906 -0.132812 0.796875 -0.15625 C 0.847656 -0.1875 0.890625 -0.234375 0.921875 -0.296875 L 0.9375 -0.296875 L 1.046875 -0.234375 C 1.015625 -0.148438 0.960938 -0.0859375 0.890625 -0.046875 C 0.816406 -0.00390625 0.726562 0.015625 0.625 0.015625 C 0.519531 0.015625 0.425781 -0.00390625 0.34375 -0.046875 C 0.269531 -0.0859375 0.210938 -0.148438 0.171875 -0.234375 C 0.140625 -0.316406 0.125 -0.414062 0.125 -0.53125 C 0.125 -0.65625 0.144531 -0.757812 0.1875 -0.84375 C 0.226562 -0.925781 0.285156 -0.988281 0.359375 -1.03125 C 0.429688 -1.070312 0.515625 -1.09375 0.609375 -1.09375 C 0.742188 -1.09375 0.847656 -1.050781 0.921875 -0.96875 C 1.003906 -0.894531 1.046875 -0.785156 1.046875 -0.640625 C 1.046875 -0.578125 1.046875 -0.535156 1.046875 -0.515625 Z M 0.890625 -0.640625 C 0.890625 -0.753906 0.863281 -0.835938 0.8125 -0.890625 C 0.769531 -0.941406 0.703125 -0.96875 0.609375 -0.96875 C 0.515625 -0.96875 0.441406 -0.941406 0.390625 -0.890625 C 0.335938 -0.835938 0.304688 -0.753906 0.296875 -0.640625 Z M 0.890625 -0.640625 "/></g></g><g transform="translate(21.926529, 22.938424)"><g/></g><g transform="translate(22.414921, 22.938424)"><g><path d="M 0.71875 0.015625 C 0.632812 0.015625 0.5625 0 0.5 -0.03125 C 0.445312 -0.0625 0.40625 -0.101562 0.375 -0.15625 L 0.34375 -0.140625 L 0.34375 0 L 0.1875 0 L 0.1875 -1.515625 L 0.34375 -1.515625 L 0.34375 -0.921875 L 0.375 -0.90625 C 0.445312 -1.03125 0.5625 -1.09375 0.71875 -1.09375 C 0.8125 -1.09375 0.890625 -1.070312 0.953125 -1.03125 C 1.023438 -0.988281 1.078125 -0.925781 1.109375 -0.84375 C 1.148438 -0.757812 1.171875 -0.65625 1.171875 -0.53125 C 1.171875 -0.414062 1.148438 -0.316406 1.109375 -0.234375 C 1.066406 -0.148438 1.007812 -0.0859375 0.9375 -0.046875 C 0.875 -0.00390625 0.800781 0.015625 0.71875 0.015625 Z M 0.671875 -0.125 C 0.890625 -0.125 1 -0.257812 1 -0.53125 C 1 -0.675781 0.96875 -0.78125 0.90625 -0.84375 C 0.851562 -0.914062 0.773438 -0.953125 0.671875 -0.953125 C 0.578125 -0.953125 0.5 -0.914062 0.4375 -0.84375 C 0.375 -0.78125 0.34375 -0.675781 0.34375 -0.53125 C 0.34375 -0.394531 0.375 -0.289062 0.4375 -0.21875 C 0.5 -0.15625 0.578125 -0.125 0.671875 -0.125 Z M 0.671875 -0.125 "/></g></g><g transform="translate(23.695248, 22.938424)"><g><path d="M 0.265625 -1.28125 C 0.234375 -1.28125 0.207031 -1.289062 0.1875 -1.3125 C 0.164062 -1.332031 0.15625 -1.359375 0.15625 -1.390625 C 0.15625 -1.429688 0.164062 -1.460938 0.1875 -1.484375 C 0.207031 -1.503906 0.234375 -1.515625 0.265625 -1.515625 C 0.296875 -1.515625 0.320312 -1.503906 0.34375 -1.484375 C 0.363281 -1.460938 0.375 -1.429688 0.375 -1.390625 C 0.375 -1.359375 0.363281 -1.332031 0.34375 -1.3125 C 0.320312 -1.289062 0.296875 -1.28125 0.265625 -1.28125 Z M 0.34375 0 L 0.1875 0 L 0.1875 -1.078125 L 0.34375 -1.078125 Z M 0.34375 0 "/></g></g><g transform="translate(24.22742, 22.938424)"><g><path d="M 0.734375 -0.171875 L 0.78125 -0.0625 C 0.75 -0.03125 0.710938 -0.0078125 0.671875 0 C 0.640625 0.0078125 0.597656 0.015625 0.546875 0.015625 C 0.335938 0.015625 0.234375 -0.0859375 0.234375 -0.296875 L 0.234375 -0.953125 L 0.046875 -0.953125 L 0.046875 -1.078125 L 0.234375 -1.078125 L 0.234375 -1.3125 L 0.390625 -1.328125 L 0.390625 -1.078125 L 0.75 -1.078125 L 0.75 -0.953125 L 0.390625 -0.953125 L 0.390625 -0.3125 C 0.390625 -0.1875 0.445312 -0.125 0.5625 -0.125 C 0.613281 -0.125 0.660156 -0.140625 0.703125 -0.171875 Z M 0.734375 -0.171875 "/></g></g><g transform="translate(25.044649, 22.938424)"><g/></g><g transform="translate(25.533041, 22.938424)"><g><path d="M 0.625 0.015625 C 0.519531 0.015625 0.425781 -0.00390625 0.34375 -0.046875 C 0.269531 -0.0859375 0.210938 -0.148438 0.171875 -0.234375 C 0.140625 -0.316406 0.125 -0.414062 0.125 -0.53125 C 0.125 -0.65625 0.140625 -0.757812 0.171875 -0.84375 C 0.210938 -0.925781 0.269531 -0.988281 0.34375 -1.03125 C 0.425781 -1.070312 0.519531 -1.09375 0.625 -1.09375 C 0.71875 -1.09375 0.800781 -1.070312 0.875 -1.03125 C 0.957031 -0.988281 1.019531 -0.925781 1.0625 -0.84375 C 1.101562 -0.757812 1.125 -0.65625 1.125 -0.53125 C 1.125 -0.414062 1.101562 -0.316406 1.0625 -0.234375 C 1.019531 -0.148438 0.957031 -0.0859375 0.875 -0.046875 C 0.800781 -0.00390625 0.71875 0.015625 0.625 0.015625 Z M 0.625 -0.125 C 0.726562 -0.125 0.804688 -0.15625 0.859375 -0.21875 C 0.921875 -0.289062 0.953125 -0.394531 0.953125 -0.53125 C 0.953125 -0.675781 0.921875 -0.78125 0.859375 -0.84375 C 0.804688 -0.914062 0.726562 -0.953125 0.625 -0.953125 C 0.507812 -0.953125 0.421875 -0.914062 0.359375 -0.84375 C 0.304688 -0.78125 0.28125 -0.675781 0.28125 -0.53125 C 0.28125 -0.394531 0.304688 -0.289062 0.359375 -0.21875 C 0.421875 -0.15625 0.507812 -0.125 0.625 -0.125 Z M 0.625 -0.125 "/></g></g><g transform="translate(26.764723, 22.938424)"><g><path d="M 0.578125 -1.390625 C 0.515625 -1.390625 0.460938 -1.375 0.421875 -1.34375 C 0.390625 -1.3125 0.375 -1.265625 0.375 -1.203125 C 0.375 -1.171875 0.382812 -1.128906 0.40625 -1.078125 L 0.75 -1.078125 L 0.75 -0.953125 L 0.40625 -0.953125 L 0.40625 0 L 0.234375 0 L 0.234375 -0.953125 L 0.046875 -0.953125 L 0.046875 -1.078125 L 0.234375 -1.078125 C 0.222656 -1.117188 0.21875 -1.164062 0.21875 -1.21875 C 0.21875 -1.28125 0.234375 -1.332031 0.265625 -1.375 C 0.296875 -1.425781 0.335938 -1.460938 0.390625 -1.484375 C 0.441406 -1.515625 0.503906 -1.53125 0.578125 -1.53125 C 0.679688 -1.53125 0.765625 -1.507812 0.828125 -1.46875 L 0.765625 -1.34375 L 0.734375 -1.34375 C 0.691406 -1.375 0.640625 -1.390625 0.578125 -1.390625 Z M 0.578125 -1.390625 "/></g></g><g transform="translate(27.529417, 22.938424)"><g/></g><g transform="translate(28.017809, 22.938424)"><g><path d="M 0.71875 0.015625 C 0.632812 0.015625 0.5625 0 0.5 -0.03125 C 0.445312 -0.0625 0.40625 -0.101562 0.375 -0.15625 L 0.34375 -0.140625 L 0.34375 0 L 0.1875 0 L 0.1875 -1.515625 L 0.34375 -1.515625 L 0.34375 -0.921875 L 0.375 -0.90625 C 0.445312 -1.03125 0.5625 -1.09375 0.71875 -1.09375 C 0.8125 -1.09375 0.890625 -1.070312 0.953125 -1.03125 C 1.023438 -0.988281 1.078125 -0.925781 1.109375 -0.84375 C 1.148438 -0.757812 1.171875 -0.65625 1.171875 -0.53125 C 1.171875 -0.414062 1.148438 -0.316406 1.109375 -0.234375 C 1.066406 -0.148438 1.007812 -0.0859375 0.9375 -0.046875 C 0.875 -0.00390625 0.800781 0.015625 0.71875 0.015625 Z M 0.671875 -0.125 C 0.890625 -0.125 1 -0.257812 1 -0.53125 C 1 -0.675781 0.96875 -0.78125 0.90625 -0.84375 C 0.851562 -0.914062 0.773438 -0.953125 0.671875 -0.953125 C 0.578125 -0.953125 0.5 -0.914062 0.4375 -0.84375 C 0.375 -0.78125 0.34375 -0.675781 0.34375 -0.53125 C 0.34375 -0.394531 0.375 -0.289062 0.4375 -0.21875 C 0.5 -0.15625 0.578125 -0.125 0.671875 -0.125 Z M 0.671875 -0.125 "/></g></g><g transform="translate(29.298135, 22.938424)"><g><path d="M 0.625 0.015625 C 0.519531 0.015625 0.425781 -0.00390625 0.34375 -0.046875 C 0.269531 -0.0859375 0.210938 -0.148438 0.171875 -0.234375 C 0.140625 -0.316406 0.125 -0.414062 0.125 -0.53125 C 0.125 -0.65625 0.140625 -0.757812 0.171875 -0.84375 C 0.210938 -0.925781 0.269531 -0.988281 0.34375 -1.03125 C 0.425781 -1.070312 0.519531 -1.09375 0.625 -1.09375 C 0.71875 -1.09375 0.800781 -1.070312 0.875 -1.03125 C 0.957031 -0.988281 1.019531 -0.925781 1.0625 -0.84375 C 1.101562 -0.757812 1.125 -0.65625 1.125 -0.53125 C 1.125 -0.414062 1.101562 -0.316406 1.0625 -0.234375 C 1.019531 -0.148438 0.957031 -0.0859375 0.875 -0.046875 C 0.800781 -0.00390625 0.71875 0.015625 0.625 0.015625 Z M 0.625 -0.125 C 0.726562 -0.125 0.804688 -0.15625 0.859375 -0.21875 C 0.921875 -0.289062 0.953125 -0.394531 0.953125 -0.53125 C 0.953125 -0.675781 0.921875 -0.78125 0.859375 -0.84375 C 0.804688 -0.914062 0.726562 -0.953125 0.625 -0.953125 C 0.507812 -0.953125 0.421875 -0.914062 0.359375 -0.84375 C 0.304688 -0.78125 0.28125 -0.675781 0.28125 -0.53125 C 0.28125 -0.394531 0.304688 -0.289062 0.359375 -0.21875 C 0.421875 -0.15625 0.507812 -0.125 0.625 -0.125 Z M 0.625 -0.125 "/></g></g><g transform="translate(30.529817, 22.938424)"><g><path d="M 0.5625 0.015625 C 0.46875 0.015625 0.390625 -0.00390625 0.328125 -0.046875 C 0.265625 -0.0859375 0.210938 -0.148438 0.171875 -0.234375 C 0.140625 -0.316406 0.125 -0.414062 0.125 -0.53125 C 0.125 -0.65625 0.140625 -0.757812 0.171875 -0.84375 C 0.210938 -0.925781 0.265625 -0.988281 0.328125 -1.03125 C 0.398438 -1.070312 0.484375 -1.09375 0.578125 -1.09375 C 0.648438 -1.09375 0.710938 -1.078125 0.765625 -1.046875 C 0.828125 -1.023438 0.878906 -0.984375 0.921875 -0.921875 L 0.9375 -0.921875 L 0.9375 -1.515625 L 1.09375 -1.515625 L 1.09375 0 L 0.9375 0 L 0.9375 -0.15625 L 0.921875 -0.15625 C 0.878906 -0.101562 0.828125 -0.0625 0.765625 -0.03125 C 0.710938 0 0.644531 0.015625 0.5625 0.015625 Z M 0.609375 -0.125 C 0.710938 -0.125 0.789062 -0.15625 0.84375 -0.21875 C 0.90625 -0.289062 0.9375 -0.394531 0.9375 -0.53125 C 0.9375 -0.675781 0.90625 -0.78125 0.84375 -0.84375 C 0.789062 -0.914062 0.710938 -0.953125 0.609375 -0.953125 C 0.503906 -0.953125 0.421875 -0.914062 0.359375 -0.84375 C 0.304688 -0.78125 0.28125 -0.675781 0.28125 -0.53125 C 0.28125 -0.257812 0.390625 -0.125 0.609375 -0.125 Z M 0.609375 -0.125 "/></g></g><g transform="translate(31.811116, 22.938424)"><g><path d="M 0.90625 -1.078125 L 1.078125 -1.078125 L 0.59375 0.171875 C 0.5625 0.234375 0.53125 0.285156 0.5 0.328125 C 0.46875 0.378906 0.425781 0.410156 0.375 0.421875 C 0.332031 0.441406 0.28125 0.453125 0.21875 0.453125 C 0.175781 0.453125 0.140625 0.445312 0.109375 0.4375 C 0.078125 0.4375 0.0507812 0.429688 0.03125 0.421875 L 0.0625 0.296875 L 0.078125 0.296875 C 0.0976562 0.296875 0.117188 0.296875 0.140625 0.296875 C 0.160156 0.304688 0.179688 0.3125 0.203125 0.3125 C 0.253906 0.3125 0.289062 0.304688 0.3125 0.296875 C 0.34375 0.285156 0.367188 0.265625 0.390625 0.234375 C 0.410156 0.210938 0.429688 0.175781 0.453125 0.125 L 0.484375 0.03125 L 0.0625 -1.078125 L 0.234375 -1.078125 L 0.5625 -0.203125 L 0.578125 -0.203125 Z M 0.90625 -1.078125 "/></g></g><g transform="translate(32.94259, 22.938424)"><g/></g><g transform="translate(33.430982, 22.938424)"><g><path d="M 0.734375 -0.171875 L 0.78125 -0.0625 C 0.75 -0.03125 0.710938 -0.0078125 0.671875 0 C 0.640625 0.0078125 0.597656 0.015625 0.546875 0.015625 C 0.335938 0.015625 0.234375 -0.0859375 0.234375 -0.296875 L 0.234375 -0.953125 L 0.046875 -0.953125 L 0.046875 -1.078125 L 0.234375 -1.078125 L 0.234375 -1.3125 L 0.390625 -1.328125 L 0.390625 -1.078125 L 0.75 -1.078125 L 0.75 -0.953125 L 0.390625 -0.953125 L 0.390625 -0.3125 C 0.390625 -0.1875 0.445312 -0.125 0.5625 -0.125 C 0.613281 -0.125 0.660156 -0.140625 0.703125 -0.171875 Z M 0.734375 -0.171875 "/></g></g><g transform="translate(34.248212, 22.938424)"><g><path d="M 1.03125 -0.5 L 0.28125 -0.5 C 0.289062 -0.375 0.320312 -0.28125 0.375 -0.21875 C 0.4375 -0.15625 0.519531 -0.125 0.625 -0.125 C 0.695312 -0.125 0.753906 -0.132812 0.796875 -0.15625 C 0.847656 -0.1875 0.890625 -0.234375 0.921875 -0.296875 L 0.9375 -0.296875 L 1.046875 -0.234375 C 1.015625 -0.148438 0.960938 -0.0859375 0.890625 -0.046875 C 0.816406 -0.00390625 0.726562 0.015625 0.625 0.015625 C 0.519531 0.015625 0.425781 -0.00390625 0.34375 -0.046875 C 0.269531 -0.0859375 0.210938 -0.148438 0.171875 -0.234375 C 0.140625 -0.316406 0.125 -0.414062 0.125 -0.53125 C 0.125 -0.65625 0.144531 -0.757812 0.1875 -0.84375 C 0.226562 -0.925781 0.285156 -0.988281 0.359375 -1.03125 C 0.429688 -1.070312 0.515625 -1.09375 0.609375 -1.09375 C 0.742188 -1.09375 0.847656 -1.050781 0.921875 -0.96875 C 1.003906 -0.894531 1.046875 -0.785156 1.046875 -0.640625 C 1.046875 -0.578125 1.046875 -0.535156 1.046875 -0.515625 Z M 0.890625 -0.640625 C 0.890625 -0.753906 0.863281 -0.835938 0.8125 -0.890625 C 0.769531 -0.941406 0.703125 -0.96875 0.609375 -0.96875 C 0.515625 -0.96875 0.441406 -0.941406 0.390625 -0.890625 C 0.335938 -0.835938 0.304688 -0.753906 0.296875 -0.640625 Z M 0.890625 -0.640625 "/></g></g><g transform="translate(35.392333, 22.938424)"><g><path d="M 0.21875 0 L 0.046875 0 L 0.375 -0.5625 L 0.0625 -1.078125 L 0.25 -1.078125 L 0.5 -0.65625 L 0.515625 -0.65625 L 0.765625 -1.078125 L 0.9375 -1.078125 L 0.625 -0.5625 L 0.953125 0 L 0.78125 0 L 0.515625 -0.453125 L 0.484375 -0.453125 Z M 0.21875 0 "/></g></g><g transform="translate(36.392467, 22.938424)"><g><path d="M 0.734375 -0.171875 L 0.78125 -0.0625 C 0.75 -0.03125 0.710938 -0.0078125 0.671875 0 C 0.640625 0.0078125 0.597656 0.015625 0.546875 0.015625 C 0.335938 0.015625 0.234375 -0.0859375 0.234375 -0.296875 L 0.234375 -0.953125 L 0.046875 -0.953125 L 0.046875 -1.078125 L 0.234375 -1.078125 L 0.234375 -1.3125 L 0.390625 -1.328125 L 0.390625 -1.078125 L 0.75 -1.078125 L 0.75 -0.953125 L 0.390625 -0.953125 L 0.390625 -0.3125 C 0.390625 -0.1875 0.445312 -0.125 0.5625 -0.125 C 0.613281 -0.125 0.660156 -0.140625 0.703125 -0.171875 Z M 0.734375 -0.171875 "/></g></g></g></svg>