<svg xmlns="http://www.w3.org/2000/svg" xmlns:xlink="http://www.w3.org/1999/xlink" width="85" zoomAndPan="magnify" viewBox="0 0 63.75 30.000001" height="40" preserveAspectRatio="xMidYMid meet" version="1.0"><defs><g/><clipPath id="b765698840"><path d="M 0.90625 0 L 62.140625 0 L 62.140625 28.4375 L 0.90625 28.4375 Z M 0.90625 0 " clip-rule="nonzero"/></clipPath><clipPath id="da872f60ad"><path d="M 0.90625 0 L 62.113281 0 L 62.113281 28.4375 L 0.90625 28.4375 Z M 0.90625 0 " clip-rule="nonzero"/></clipPath><clipPath id="e73995e958"><path d="M 46.773438 -0.464844 C 55.246094 -0.464844 62.113281 6.007812 62.113281 13.988281 C 62.113281 21.96875 55.246094 28.4375 46.773438 28.4375 L 16.097656 28.4375 C 7.625 28.4375 0.757812 21.96875 0.757812 13.988281 C 0.757812 6.007812 7.625 -0.464844 16.097656 -0.464844 L 46.773438 -0.464844 " clip-rule="nonzero"/></clipPath><clipPath id="acf85b9b13"><path d="M 0.90625 0 L 58.527344 0 L 58.527344 26.570312 L 0.90625 26.570312 Z M 0.90625 0 " clip-rule="nonzero"/></clipPath></defs><g clip-path="url(#b765698840)"><path fill="#338ac8" d="M 46.773438 -0.464844 C 55.246094 -0.464844 62.113281 6.007812 62.113281 13.988281 C 62.113281 21.96875 55.246094 28.4375 46.773438 28.4375 L 16.097656 28.4375 C 7.625 28.4375 0.757812 21.96875 0.757812 13.988281 C 0.757812 6.007812 7.625 -0.464844 16.097656 -0.464844 L 46.773438 -0.464844 " fill-opacity="1" fill-rule="nonzero"/></g><g clip-path="url(#da872f60ad)"><g clip-path="url(#e73995e958)"><path stroke-linecap="butt" transform="matrix(1.807073, 0, 0, 1.855158, 0.757031, -0.463148)" fill="none" stroke-linejoin="miter" d="M 25.464613 -0.000913947 C 30.153222 -0.000913947 33.953394 3.488092 33.953394 7.789866 C 33.953394 12.09164 30.153222 15.578541 25.464613 15.578541 L 8.489213 15.578541 C 3.800605 15.578541 0.000432223 12.09164 0.000432223 7.789866 C 0.000432223 3.488092 3.800605 -0.000913947 8.489213 -0.000913947 L 25.464613 -0.000913947 " stroke="#338ac8" stroke-width="3.227265" stroke-opacity="1" stroke-miterlimit="4"/></g></g><g clip-path="url(#acf85b9b13)"><path fill="#ffffff" d="M 42.257812 -2.328125 C 51.230469 -2.328125 58.507812 4.140625 58.507812 12.121094 C 58.507812 20.101562 51.230469 26.570312 42.257812 26.570312 L 15.191406 26.570312 C 6.21875 26.570312 -1.054688 20.101562 -1.054688 12.121094 C -1.054688 4.140625 6.21875 -2.328125 15.191406 -2.328125 L 42.257812 -2.328125 " fill-opacity="1" fill-rule="nonzero"/></g><g fill="#338ac8" fill-opacity="1"><g transform="translate(10.303631, 20.657852)"><g><path d="M 9.90625 0 L 7.75 0 L 6.984375 -2.375 L 3.03125 -2.375 L 2.25 0 L 0.15625 0 L 3.71875 -10.3125 L 6.34375 -10.3125 Z M 4.90625 -8.171875 L 3.578125 -4.09375 L 6.421875 -4.09375 L 5.078125 -8.171875 Z M 4.90625 -8.171875 "/></g></g><g transform="translate(20.357885, 20.657852)"><g><path d="M 3.375 0 L 1.34375 0 L 1.34375 -10.3125 L 3.375 -10.3125 Z M 3.375 0 "/></g></g><g transform="translate(25.085148, 20.657852)"><g><path d="M 5.640625 0.140625 C 4.691406 0.140625 3.851562 -0.0507812 3.125 -0.4375 C 2.40625 -0.832031 1.835938 -1.425781 1.421875 -2.21875 C 1.015625 -3.019531 0.8125 -4 0.8125 -5.15625 C 0.8125 -6.320312 1.015625 -7.300781 1.421875 -8.09375 C 1.835938 -8.882812 2.40625 -9.476562 3.125 -9.875 C 3.851562 -10.269531 4.691406 -10.46875 5.640625 -10.46875 C 6.628906 -10.46875 7.46875 -10.269531 8.15625 -9.875 C 8.851562 -9.488281 9.351562 -8.898438 9.65625 -8.109375 L 8.171875 -7.203125 L 7.984375 -7.203125 C 7.765625 -7.742188 7.460938 -8.128906 7.078125 -8.359375 C 6.703125 -8.585938 6.222656 -8.703125 5.640625 -8.703125 C 4.785156 -8.703125 4.117188 -8.414062 3.640625 -7.84375 C 3.160156 -7.28125 2.921875 -6.382812 2.921875 -5.15625 C 2.921875 -3.925781 3.160156 -3.023438 3.640625 -2.453125 C 4.117188 -1.890625 4.785156 -1.609375 5.640625 -1.609375 C 6.984375 -1.609375 7.804688 -2.265625 8.109375 -3.578125 L 8.28125 -3.578125 L 9.78125 -2.78125 C 9.5 -1.800781 9.015625 -1.066406 8.328125 -0.578125 C 7.648438 -0.0976562 6.753906 0.140625 5.640625 0.140625 Z M 5.640625 0.140625 "/></g></g><g transform="translate(35.202902, 20.657852)"><g><path d="M 5.328125 -10.3125 C 6.066406 -10.3125 6.695312 -10.175781 7.21875 -9.90625 C 7.75 -9.632812 8.144531 -9.253906 8.40625 -8.765625 C 8.675781 -8.285156 8.8125 -7.722656 8.8125 -7.078125 C 8.8125 -6.429688 8.675781 -5.863281 8.40625 -5.375 C 8.144531 -4.894531 7.75 -4.519531 7.21875 -4.25 C 6.695312 -3.976562 6.066406 -3.84375 5.328125 -3.84375 L 3.375 -3.84375 L 3.375 0 L 1.34375 0 L 1.34375 -10.3125 Z M 5.0625 -5.46875 C 6.195312 -5.46875 6.765625 -6.003906 6.765625 -7.078125 C 6.765625 -8.160156 6.195312 -8.703125 5.0625 -8.703125 L 3.375 -8.703125 L 3.375 -5.46875 Z M 5.0625 -5.46875 "/></g></g><g transform="translate(44.629206, 20.657852)"><g><path d="M 9.90625 0 L 7.75 0 L 6.984375 -2.375 L 3.03125 -2.375 L 2.25 0 L 0.15625 0 L 3.71875 -10.3125 L 6.34375 -10.3125 Z M 4.90625 -8.171875 L 3.578125 -4.09375 L 6.421875 -4.09375 L 5.078125 -8.171875 Z M 4.90625 -8.171875 "/></g></g></g></svg>